<?xml version="1.0" standalone="no"?>
<!DOCTYPE svg PUBLIC "-//W3C//DTD SVG 20010904//EN"
 "http://www.w3.org/TR/2001/REC-SVG-20010904/DTD/svg10.dtd">
<svg version="1.0" xmlns="http://www.w3.org/2000/svg"
 width="700.000000pt" height="700.000000pt" viewBox="0 0 700.000000 700.000000"
 preserveAspectRatio="xMidYMid meet">
<metadata>
Created by potrace 1.14, written by Peter Selinger 2001-2017
</metadata>
<g transform="translate(0.000000,700.000000) scale(0.100000,-0.100000)"
fill="#000000" stroke="none">
<path d="M2195 6695 c-38 -8 -83 -17 -100 -20 -53 -11 -180 -71 -246 -115
-159 -108 -284 -270 -343 -444 -44 -129 -46 -172 -47 -823 -1 -574 -2 -623
-17 -624 -10 0 -100 -2 -202 -3 -193 -4 -280 -17 -381 -56 -52 -21 -179 -87
-189 -99 -3 -3 -21 -18 -41 -33 -137 -102 -267 -294 -305 -453 -32 -129 -32
-153 -30 -1570 1 -775 5 -1423 9 -1440 5 -16 12 -48 18 -70 32 -128 102 -255
205 -373 30 -35 158 -142 169 -142 4 0 19 -8 33 -19 48 -33 169 -79 264 -100
92 -20 116 -20 2498 -20 2547 0 2470 -2 2612 44 305 99 543 376 595 693 10 60
10 4870 1 4938 -42 290 -255 561 -528 674 -58 24 -85 33 -145 46 -5 1 -23 6
-40 10 -16 5 -860 9 -1875 10 -1520 2 -1857 0 -1915 -11z m3757 -598 c71 -35
114 -77 146 -147 l26 -55 0 -2395 0 -2395 -26 -55 c-33 -70 -79 -116 -148
-149 l-55 -25 -1940 -1 c-1067 -1 -1945 0 -1951 2 -7 3 -5 26 7 72 9 37 20 92
24 122 4 29 7 1116 6 2414 0 1551 3 2378 10 2412 19 99 100 185 201 215 38 11
369 13 1845 13 l1798 0 57 -28z m-4495 -3507 l-2 -1495 -21 -45 c-108 -230
-424 -230 -532 0 l-26 55 0 1375 c0 1367 0 1375 21 1421 24 54 72 111 117 138
57 35 124 46 288 46 l157 0 -2 -1495z"/>
<path d="M2894 5538 c-115 -12 -200 -74 -246 -176 -21 -46 -21 -60 -22 -687 0
-606 1 -643 19 -692 23 -65 84 -131 150 -163 l50 -25 1225 -2 c1196 -2 1226
-2 1280 17 85 31 154 109 184 207 12 39 9 1265 -3 1309 -25 94 -112 180 -206
205 -45 12 -2325 19 -2431 7z m2063 -872 l-2 -291 -872 0 -873 0 0 291 0 292
874 -1 874 0 -1 -291z"/>
<path d="M2838 3196 c-125 -34 -209 -146 -211 -281 -1 -113 64 -212 173 -263
l55 -26 1205 -1 c869 -1 1219 2 1256 10 131 29 216 134 220 273 5 121 -54 219
-164 273 l-47 24 -1220 2 c-963 1 -1230 -1 -1267 -11z"/>
<path d="M2937 2044 c-1 -1 -28 -4 -59 -8 -150 -15 -265 -161 -251 -316 5 -54
43 -133 85 -177 30 -31 100 -70 142 -79 32 -7 1536 -7 1574 0 137 25 243 157
237 294 -6 143 -111 259 -250 279 -32 4 -1473 11 -1478 7z"/>
</g>
</svg>
